<svg width="200" height="200" viewBox="0 0 200 200" fill="none" xmlns="http://www.w3.org/2000/svg">
<rect width="200" height="200" rx="63" fill="#181818"/>
<path d="M39.5879 72.5771H59.1729C64.8923 72.5771 69.8597 73.1924 74.0752 74.4229C78.2907 75.6533 81.777 77.4193 84.5342 79.7207C87.3141 81.9993 89.3763 84.7793 90.7207 88.0605C92.0879 91.319 92.7715 94.9876 92.7715 99.0664C92.7715 102.94 92.0993 106.529 90.7549 109.833C89.4105 113.114 87.3597 115.963 84.6025 118.378C81.8454 120.771 78.359 122.65 74.1436 124.018C69.9281 125.362 64.9606 126.034 59.2412 126.034L39.5879 126V72.5771ZM61.8389 116.635C65.0745 116.635 67.9115 116.225 70.3496 115.404C72.7878 114.561 74.8158 113.376 76.4336 111.85C78.0742 110.323 79.3047 108.477 80.125 106.312C80.9453 104.148 81.3555 101.732 81.3555 99.0664C81.3555 96.446 80.9453 94.0876 80.125 91.9912C79.3047 89.8721 78.0742 88.0833 76.4336 86.625C74.8158 85.1439 72.7878 84.0046 70.3496 83.207C67.9115 82.4095 65.0745 82.0107 61.8389 82.0107H50.4229V116.635H61.8389ZM99.9834 98.793C99.9834 95.0332 100.69 91.5241 102.103 88.2656C103.515 84.9844 105.577 82.1361 108.289 79.7207C111.001 77.3053 114.327 75.4027 118.27 74.0127C122.234 72.6227 126.769 71.9277 131.873 71.9277C133.719 71.9277 135.564 72.0303 137.41 72.2354C139.279 72.4176 141.113 72.7139 142.913 73.124C144.736 73.5342 146.502 74.0583 148.211 74.6963C149.943 75.3115 151.583 76.0521 153.133 76.918L148.143 85.1211C147.208 84.5742 146.149 84.0843 144.964 83.6514C143.779 83.1956 142.503 82.8197 141.136 82.5234C139.791 82.2044 138.39 81.9652 136.932 81.8057C135.496 81.6462 134.049 81.5664 132.591 81.5664C129.218 81.5664 126.211 81.9993 123.567 82.8652C120.924 83.7083 118.691 84.9046 116.868 86.4541C115.045 87.9808 113.655 89.8151 112.698 91.957C111.741 94.099 111.263 96.446 111.263 98.998C111.263 101.641 111.764 104.068 112.767 106.278C113.769 108.489 115.193 110.391 117.039 111.986C118.885 113.581 121.118 114.835 123.738 115.746C126.359 116.635 129.287 117.079 132.522 117.079C135.097 117.079 137.456 116.794 139.598 116.225C141.74 115.632 143.608 114.8 145.203 113.729C146.798 112.659 148.097 111.371 149.1 109.867C150.102 108.34 150.763 106.632 151.082 104.74H132.42V95.8193H160.823V95.8535L160.857 95.8193C161.427 98.5537 161.598 101.22 161.37 103.817C161.165 106.392 160.573 108.83 159.593 111.132C158.636 113.41 157.314 115.507 155.628 117.421C153.942 119.335 151.925 120.987 149.578 122.377C147.231 123.744 144.565 124.815 141.58 125.59C138.595 126.342 135.325 126.718 131.771 126.718C126.803 126.718 122.348 125.989 118.406 124.53C114.487 123.072 111.16 121.078 108.426 118.549C105.691 116.02 103.595 113.057 102.137 109.662C100.701 106.267 99.9834 102.644 99.9834 98.793Z" fill="white"/>
</svg>
