<svg width="123" height="56" viewBox="0 0 123 56" fill="none" xmlns="http://www.w3.org/2000/svg">
<path d="M0.587891 1.57715H20.1729C25.8923 1.57715 30.8597 2.19238 35.0752 3.42285C39.2907 4.65332 42.777 6.41927 45.5342 8.7207C48.3141 10.9993 50.3763 13.7793 51.7207 17.0605C53.0879 20.319 53.7715 23.9876 53.7715 28.0664C53.7715 31.9401 53.0993 35.529 51.7549 38.833C50.4105 42.1143 48.3597 44.9626 45.6025 47.3779C42.8454 49.7705 39.359 51.6504 35.1436 53.0176C30.9281 54.362 25.9606 55.0342 20.2412 55.0342L0.587891 55V1.57715ZM22.8389 45.6348C26.0745 45.6348 28.9115 45.2246 31.3496 44.4043C33.7878 43.5612 35.8158 42.3763 37.4336 40.8496C39.0742 39.3229 40.3047 37.4772 41.125 35.3125C41.9453 33.1478 42.3555 30.7324 42.3555 28.0664C42.3555 25.446 41.9453 23.0876 41.125 20.9912C40.3047 18.8721 39.0742 17.0833 37.4336 15.625C35.8158 14.1439 33.7878 13.0046 31.3496 12.207C28.9115 11.4095 26.0745 11.0107 22.8389 11.0107H11.4229V45.6348H22.8389ZM60.9834 27.793C60.9834 24.0332 61.6898 20.5241 63.1025 17.2656C64.5153 13.9844 66.5775 11.1361 69.2891 8.7207C72.0007 6.30534 75.3275 4.40267 79.2695 3.0127C83.2344 1.62272 87.7689 0.927734 92.873 0.927734C94.7188 0.927734 96.5645 1.03027 98.4102 1.23535C100.279 1.41764 102.113 1.71387 103.913 2.12402C105.736 2.53418 107.502 3.05827 109.211 3.69629C110.943 4.31152 112.583 5.05208 114.133 5.91797L109.143 14.1211C108.208 13.5742 107.149 13.0843 105.964 12.6514C104.779 12.1956 103.503 11.8197 102.136 11.5234C100.791 11.2044 99.39 10.9652 97.9316 10.8057C96.4961 10.6462 95.0492 10.5664 93.5908 10.5664C90.2184 10.5664 87.2106 10.9993 84.5674 11.8652C81.9242 12.7083 79.6911 13.9046 77.8682 15.4541C76.0452 16.9808 74.6553 18.8151 73.6982 20.957C72.7412 23.099 72.2627 25.446 72.2627 27.998C72.2627 30.6413 72.764 33.068 73.7666 35.2783C74.7692 37.4886 76.1934 39.3913 78.0391 40.9863C79.8848 42.5814 82.1178 43.8346 84.7383 44.7461C87.3587 45.6348 90.2868 46.0791 93.5225 46.0791C96.0973 46.0791 98.4557 45.7943 100.598 45.2246C102.74 44.6322 104.608 43.8005 106.203 42.7295C107.798 41.6585 109.097 40.3711 110.1 38.8672C111.102 37.3405 111.763 35.6315 112.082 33.7402H93.4199V24.8193H121.823V24.8535L121.857 24.8193C122.427 27.5537 122.598 30.2197 122.37 32.8174C122.165 35.3923 121.573 37.8304 120.593 40.1318C119.636 42.4105 118.314 44.5068 116.628 46.4209C114.942 48.335 112.925 49.987 110.578 51.377C108.231 52.7441 105.565 53.8151 102.58 54.5898C99.5951 55.3418 96.3252 55.7178 92.7705 55.7178C87.8031 55.7178 83.3483 54.9886 79.4062 53.5303C75.487 52.0719 72.1602 50.0781 69.4258 47.5488C66.6914 45.0195 64.5951 42.0573 63.1367 38.6621C61.7012 35.2669 60.9834 31.6439 60.9834 27.793Z" fill="black"/>
</svg>
