<svg width="333" height="239" viewBox="0 0 333 239" fill="none" xmlns="http://www.w3.org/2000/svg">
<path d="M10.9806 89.9227C29.1547 77.7933 48.8735 70.5893 69.9426 66.8564C78.4061 65.357 78.4361 65.3762 80.1576 56.9838C81.4952 50.463 82.6506 43.9161 82.9368 37.239C83.0291 35.0838 83.318 32.9158 83.7532 30.8023C84.217 28.5493 85.2597 26.5717 88.0605 26.9446C90.5299 27.2733 91.1185 29.1796 91.2493 31.3369C91.4852 35.2274 90.1849 38.8971 89.6799 42.6782C88.7647 49.5287 86.1426 56.0955 85.8501 63.8049C92.8845 62.6929 99.342 61.4566 105.855 60.6925C115.94 59.5092 126.094 59.4095 136.238 59.5717C138.457 59.6072 140.518 59.5292 142.49 58.3851C157.549 49.6475 173.915 43.9491 190.163 37.9875C192.537 37.1163 194.67 35.9147 196.76 34.5113C199.512 32.663 202.188 31.2986 205.98 32.3762C210.856 33.7623 217.483 29.097 218.594 24.0898C219.747 18.8927 220.632 13.6366 221.699 8.41965C222.031 6.79657 222.425 5.15414 223.061 3.63345C223.821 1.81445 224.713 -0.491944 227.218 0.190948C229.824 0.901307 229.278 3.28671 228.816 5.23517C227.855 9.27933 226.723 13.2825 225.753 17.3246C225.424 18.6992 224.716 20.1492 226.016 21.9591C231.225 15.9068 236.976 10.6884 244.8 8.60855C252.694 6.51056 260.042 6.90231 265.44 14.1378C268.892 11.7384 271.981 9.50647 275.161 7.41187C276.998 6.20187 279.088 5.57956 281.328 5.71848C283.39 5.84631 284.355 6.86789 283.923 9.00745C283.145 12.8539 278.26 16.9398 274.142 17.2067C273.68 17.2367 273.233 17.5056 272.743 18.5356C279.814 18.8989 286.885 19.2521 293.955 19.6327C295.699 19.7266 297.935 18.624 299.009 20.601C300.229 22.8487 298.011 24.8119 296.782 25.6519C288.299 31.4525 282.161 40.2957 272.274 44.2715C264.189 47.5226 260.389 46.4947 255.4 39.1423C255.048 38.6237 254.577 38.1859 253.824 37.3244C247.186 43.991 239.929 49.4749 231.392 53.0187C227.863 54.4838 224.345 56.3923 220.651 56.9313C216.441 57.5454 214.757 59.665 213.534 63.3398C212.393 66.7714 211.956 70.5789 209.439 73.4376C208.505 74.4981 207.433 76.0508 205.695 75.0781C204.057 74.1617 203.617 72.5256 204.242 70.7371C205.551 66.9901 206.911 63.2608 208.473 58.901C200.396 56.1484 190.816 55.326 190.529 43.7147C176.306 48.5316 162.918 53.1682 150.485 60.2508C151.516 62.658 153.27 63.427 154.683 64.5104C159.726 68.3764 160.605 71.0016 158.306 77.0087C154.297 87.4837 146.531 94.9868 138.258 102.1C120.58 117.299 99.9609 127.246 78.5252 135.764C78.2761 135.863 78.1317 136.225 77.7586 136.687C92.8769 138.644 107.972 139.314 122.874 141.725C127.273 142.437 131.495 141.376 134.909 138.112C135.822 137.239 136.732 136.041 138.329 136.763C138.152 143.158 132.965 147.775 125.712 147.73C116.028 147.669 106.547 145.506 96.9271 144.735C90.2909 144.204 83.6483 143.731 77.0248 143.069C73.1399 142.682 71.1475 144.248 70.4841 148.072C65.5346 176.602 55.888 204.117 52.1422 232.913C51.7848 235.661 50.4308 237.91 47.5101 238.74C42.2469 232.506 41.2949 216.158 45.7507 209.691C47.9221 208.95 47.5494 211.496 49.0482 212.257C50.266 207.269 51.348 202.415 52.6406 197.618C57.1021 181.06 60.4208 164.242 64.2241 147.534C64.9876 144.18 64.871 141.909 60.5348 142.096C58.0194 142.204 56.2064 140.785 56.1711 138.286C56.136 135.799 58.3479 135.124 60.4041 134.908C65.1162 134.415 67.7161 132.333 68.4896 127.234C71.1352 109.794 75.151 92.5778 77.1804 75.03C77.292 74.0652 77.3019 73.0886 77.3652 72.0162C73.8588 70.2349 70.6229 72.0823 67.5638 72.6646C51.4398 75.7334 36.0853 81.1151 21.6968 89.1175C17.5823 91.4059 14.171 94.6034 10.6059 97.5919C8.91957 99.0056 7.65443 100.889 7.92811 103.244C8.26994 106.187 6.7342 107.47 4.19282 107.098C1.39149 106.688 0.470378 104.546 1.08714 101.855C2.34382 96.3727 6.66459 93.3642 10.9806 89.9227ZM82.8244 76.9371C82.6549 85.268 80.8053 93.377 79.4419 101.539C77.8629 110.992 75.8319 120.371 74.8353 130.383C76.5097 130.007 77.6449 129.866 78.7001 129.497C100.967 121.707 120.887 109.856 138.712 94.4804C144.683 89.3294 149.648 83.2903 152.727 75.9016C153.964 72.9324 154.581 69.8565 151.05 68.1078C146.692 65.9496 142.258 64.4389 137.257 66.8703C127.962 71.39 119.021 76.4471 110.778 82.7007C109.315 83.8106 107.508 85.4176 105.977 83.7175C104.137 81.6738 106.202 80.1301 107.73 78.8501C108.49 78.2137 109.4 77.7573 110.234 77.2082C115.971 73.4336 121.705 69.656 128.601 65.1154C115.461 65.4078 103.906 65.9935 92.3822 67.9911C87.1001 68.9069 83.5632 70.4951 82.8244 76.9371ZM248.468 34.9658C250.618 32.6013 253.427 30.7092 254.573 26.67C243.925 28.2125 234.122 30.6564 224.325 33.1358C223.077 33.4518 222.226 34.2895 221.971 35.4883C220.849 40.7646 219.519 45.9855 216.775 52.3244C229.903 49.5762 239.536 43.6729 248.468 34.9658ZM277.694 35.2267C280.781 32.5562 284.406 30.4631 286.966 26.792C283.081 24.0359 278.727 25.5507 274.785 24.7656C269.371 23.6874 265.156 24.4955 261.643 29.8653C259.336 33.3924 260.305 35.7196 261.759 38.2758C263.267 40.9292 266.092 41.307 268.786 40.0895C271.645 38.797 274.345 37.1516 277.694 35.2267ZM256.792 20.585C258.546 19.9944 259.724 18.8548 259.461 16.9286C259.153 14.679 257.412 13.7273 255.438 13.0065C246.818 9.8587 233.587 16.1232 229.093 26.2251C238.425 24.3205 247.226 22.524 256.792 20.585ZM213.97 43.5608C214.498 41.0616 216.057 38.7053 215.178 35.6613C211.004 36.8507 207.052 37.9581 203.113 39.11C201.843 39.4814 200.591 39.9301 199.359 40.4144C197.542 41.1288 195.408 41.4995 195.34 44.1575C195.275 46.748 196.544 48.6391 198.505 50.0463C205.961 55.3957 210.84 53.5282 213.97 43.5608Z" fill="black"/>
<path d="M180.795 136.293C178.372 134.666 178.859 131.773 176.841 129.835C173.601 132.265 172.109 136.572 168.001 138.152C163.281 139.966 159.995 138.302 157.376 134.316C155.783 135.026 154.488 135.821 153.081 136.186C149.648 137.075 146.675 134.364 147.296 130.853C148.504 124.016 152.218 118.525 157.201 113.918C159.041 112.217 161.379 111.224 164.037 112.905C166.599 114.526 166.081 116.669 165.664 119.063C165.119 122.193 163.015 124.871 163.148 128.156C163.214 129.804 163.065 131.68 165.023 132.396C166.748 133.027 167.948 131.818 168.762 130.572C171.129 126.948 175.088 124.084 174.206 118.857C173.925 117.192 175.388 116.082 176.783 115.514C180.647 113.939 182.472 110.675 184.345 107.265C186.987 102.457 189.858 97.7686 192.766 93.1138C193.935 91.2441 195.602 89.3017 198.031 90.9732C200.285 92.5247 198.835 94.6914 197.862 96.3103C195.319 100.543 192.454 104.596 191.449 109.894C196.717 110.47 201.139 108.191 205.789 107.276C207.253 106.988 208.645 106.296 210.114 106.071C215.239 105.283 217.597 108.118 216.162 113.019C215.185 116.358 212.141 119.278 214.028 123.902C219.053 121.487 221.106 116.78 223.669 112.783C226.249 108.759 228.833 104.64 230.039 99.8545C230.576 97.7242 232.211 96.304 234.543 96.9303C237.084 97.6127 237.008 99.7504 236.52 101.825C235.296 107.022 231.958 111.462 231.151 116.82C230.917 118.372 229.699 119.835 231.144 122.106C235.254 114.934 239.677 108.383 242.802 101.066C243.913 98.4655 245.023 95.8621 246.229 93.3047C247.212 91.221 248.927 90.2563 251.139 91.1295C253.239 91.9586 252.66 93.8749 252.298 95.4586C251.968 96.9022 251.535 98.3928 250.802 99.6629C242.768 113.576 238.486 129.103 231.855 143.631C224.535 159.666 218.061 176.089 211.313 192.383C209.853 195.908 208.912 199.647 207.497 203.194C206.914 204.655 205.976 206.445 203.808 205.654C201.912 204.961 201.428 203.196 201.954 201.513C204.073 194.732 205.246 187.69 208.828 181.322C215.855 168.827 220.562 155.244 226.393 142.185C226.64 141.632 226.738 140.499 226.445 140.295C220.988 136.485 223.472 130.633 222.796 125.611C220.523 125.31 219.905 127.237 218.713 128.199C216.371 130.091 213.802 131.38 210.912 130.103C209.026 129.27 207.615 128.859 205.405 129.449C201.71 130.435 201.121 127.232 200.827 124.531C200.481 121.349 202.033 118.405 202.688 115.352C193.688 113.694 188.543 117.148 187.294 125.369C186.894 128.002 186.693 130.69 186.011 133.249C185.399 135.543 184.353 137.854 180.795 136.293Z" fill="black"/>
<path d="M298.766 100.765C308.433 91.8445 314.59 80.7018 321.88 70.4156C324.798 66.2985 327.877 62.2956 330.975 58.1153C332.919 60.2171 331.783 61.7405 330.955 63.0105C323.334 74.6999 316.877 87.1962 308.038 98.0286C301.575 105.949 294.976 113.979 285.244 118.381C277.693 121.797 270.735 121.764 264.887 115.011C262.644 115.692 262.044 117.836 260.633 119.127C257.671 121.836 255.191 121.424 253.794 117.722C253.338 116.516 252.928 115.01 253.242 113.841C255.322 106.083 258.142 98.6377 263.98 92.8022C265.659 91.1241 267.826 90.6921 269.929 92.0128C272.144 93.4044 272.951 95.4495 272.026 98.0379C271.243 100.231 270.473 102.429 269.766 104.647C268.773 107.763 269.361 110.65 271.601 112.983C274.001 115.483 277.073 115.179 279.996 114.192C287.473 111.667 293.166 106.566 298.766 100.765Z" fill="black"/>
<path d="M316.2 26.9502C312.94 27.8234 311.93 26.1181 311.852 23.6446C311.789 21.6348 312.866 20.1296 314.871 19.6516C316.781 19.1962 318.682 19.6412 319.537 21.5159C320.879 24.4553 318.506 25.5842 316.2 26.9502Z" fill="black"/>
</svg>
