<svg width="878" height="597" viewBox="0 0 878 597" fill="none" xmlns="http://www.w3.org/2000/svg">
<g clip-path="url(#clip0_0_1)">
<path d="M247 323V289L290.888 349.35C280.028 356.096 267.029 358.517 254.468 356.133C241.907 353.748 230.7 346.733 223.066 336.476C215.433 326.22 211.93 313.47 213.252 300.754C214.574 288.037 220.625 276.28 230.205 267.813C239.785 259.346 252.196 254.787 264.979 255.037C277.761 255.288 289.984 260.331 299.225 269.166C308.466 278.002 314.051 289.987 314.873 302.746C315.696 315.505 311.696 328.107 303.667 338.057" stroke="black" stroke-width="2" stroke-linecap="round" stroke-linejoin="round"/>
<path d="M281 306V289" stroke="black" stroke-width="2" stroke-linecap="round" stroke-linejoin="round"/>
</g>
<g clip-path="url(#clip1_0_1)">
<path d="M113.333 296.666L102 378.833L68.0001 390.166L34.0001 378.833L22.6667 296.666H113.333Z" stroke="black" stroke-width="2" stroke-linecap="round" stroke-linejoin="round"/>
<path d="M48.1667 319.334H87.8334L62.3334 342.001H85.0001L82.1667 361.834L68.0001 366.084L53.8334 361.834L53.2667 359.001" stroke="black" stroke-width="2" stroke-linecap="round" stroke-linejoin="round"/>
</g>
<g clip-path="url(#clip2_0_1)">
<path d="M570.333 189.666L559 271.833L525 283.166L491 271.833L479.667 189.666H570.333Z" stroke="black" stroke-width="2" stroke-linecap="round" stroke-linejoin="round"/>
<path d="M544.833 212.334H505.167L508 235.001H542L539.167 254.834L525 259.084L510.833 254.834L510.267 252.001" stroke="black" stroke-width="2" stroke-linecap="round" stroke-linejoin="round"/>
</g>
<g clip-path="url(#clip3_0_1)">
<path d="M419.558 357.606L430.403 373.545C431.198 374.715 432.665 375.255 434.048 374.886L464.546 366.732C465.009 366.612 465.441 366.392 465.809 366.087C466.178 365.782 466.475 365.4 466.679 364.967C466.883 364.534 466.99 364.062 466.991 363.583C466.992 363.105 466.887 362.632 466.685 362.199L444.17 315.75C444.064 315.532 443.9 315.348 443.698 315.215C443.495 315.083 443.261 315.007 443.019 314.997C442.777 314.987 442.537 315.042 442.324 315.157C442.111 315.272 441.933 315.443 441.809 315.651L419.45 354.165C419.14 354.689 418.985 355.292 419.005 355.901C419.025 356.511 419.215 357.102 419.558 357.606Z" stroke="black" stroke-width="2" stroke-linecap="round" stroke-linejoin="round"/>
<path d="M432.5 375L443 315" stroke="black" stroke-width="2" stroke-linecap="round" stroke-linejoin="round"/>
</g>
<g clip-path="url(#clip4_0_1)">
<path d="M710.667 374C702.58 368.186 690.323 352.161 688 340C685.246 344.364 679.494 351.334 676.667 351.334C668.172 346.302 673.414 328.82 676.667 317.334C667.623 309.213 662.681 303.405 662.5 294.667C643.517 275.174 659.984 264.804 676.667 277.667H682.333C730.398 280.5 718.719 323.397 733.333 342.834C746.338 345.792 754.102 355.606 761.667 362.667C749.846 361.534 745.891 360.718 741.833 362.667C744.542 371.96 753.864 375.134 761.667 379.667" stroke="black" stroke-width="2" stroke-linecap="round" stroke-linejoin="round"/>
<path d="M688 294.666H688.057" stroke="black" stroke-width="2" stroke-linecap="round" stroke-linejoin="round"/>
</g>
<g clip-path="url(#clip5_0_1)">
<path d="M455 478C455 484.697 456.319 491.329 458.882 497.517C461.445 503.704 465.202 509.327 469.938 514.062C474.673 518.798 480.296 522.555 486.483 525.118C492.671 527.681 499.303 529 506 529C512.697 529 519.329 527.681 525.517 525.118C531.704 522.555 537.327 518.798 542.062 514.062C546.798 509.327 550.555 503.704 553.118 497.517C555.681 491.329 557 484.697 557 478C557 471.303 555.681 464.671 553.118 458.483C550.555 452.296 546.798 446.673 542.062 441.938C537.327 437.202 531.704 433.445 525.517 430.882C519.329 428.319 512.697 427 506 427C499.303 427 492.671 428.319 486.483 430.882C480.296 433.445 474.673 437.202 469.938 441.938C465.202 446.673 461.445 452.296 458.882 458.483C456.319 464.671 455 471.303 455 478Z" stroke="black" stroke-width="2" stroke-linecap="round" stroke-linejoin="round"/>
<path d="M506 469.63C519.94 464.949 528.667 464.949 528.667 457.418C528.667 449.678 521.034 449.678 513.168 449.678C502.345 449.678 494.174 452.454 487.459 459.583C482.653 464.694 481.639 473.461 486.592 478.323C492.105 483.74 504.759 488.46 502.934 498.116C501.614 505.115 494.61 508.447 488.105 504.928C483.673 502.525 485.532 495.034 491.652 490.693C497.772 486.352 507.643 485.072 514.885 489.333C520.439 492.591 520.813 499.102 517.345 501.76" stroke="black" stroke-width="2" stroke-linecap="round" stroke-linejoin="round"/>
</g>
<g clip-path="url(#clip6_0_1)">
<path d="M561.333 106C561.333 119.526 567.303 132.498 577.931 142.062C588.558 151.627 602.971 157 618 157C633.029 157 647.442 151.627 658.069 142.062C668.696 132.498 674.667 119.526 674.667 106C674.667 92.474 668.696 79.5019 658.069 69.9376C647.442 60.3732 633.029 55 618 55C602.971 55 588.558 60.3732 577.931 69.9376C567.303 79.5019 561.333 92.474 561.333 106Z" stroke="black" stroke-width="2" stroke-linecap="round" stroke-linejoin="round"/>
<path d="M581.167 122.999L583.405 111.813L586.833 94.666H594.313C595.136 94.6664 595.949 94.8458 596.695 95.1919C597.441 95.538 598.103 96.0424 598.635 96.67C599.166 97.2977 599.555 98.0335 599.774 98.8265C599.992 99.6195 600.036 100.451 599.901 101.262L598.954 106.929C598.734 108.252 598.052 109.454 597.029 110.322C596.006 111.189 594.708 111.665 593.367 111.666H584" stroke="black" stroke-width="2" stroke-linecap="round" stroke-linejoin="round"/>
<path d="M637.833 122.999L640.072 111.813L643.5 94.666H650.98C651.802 94.6664 652.615 94.8458 653.361 95.1919C654.108 95.538 654.77 96.0424 655.301 96.67C655.833 97.2977 656.222 98.0335 656.44 98.8265C656.659 99.6195 656.702 100.451 656.567 101.262L655.621 106.929C655.401 108.252 654.719 109.454 653.696 110.322C652.673 111.189 651.375 111.665 650.034 111.666H640.667" stroke="black" stroke-width="2" stroke-linecap="round" stroke-linejoin="round"/>
<path d="M618 80.5L612.333 111.667" stroke="black" stroke-width="2" stroke-linecap="round" stroke-linejoin="round"/>
<path d="M615.733 94.666H629.333L626.5 111.666" stroke="black" stroke-width="2" stroke-linecap="round" stroke-linejoin="round"/>
</g>
<g clip-path="url(#clip7_0_1)">
<path d="M187 184.25V242.833" stroke="black" stroke-width="2" stroke-linecap="round" stroke-linejoin="round"/>
<path d="M205.5 209.616C205.5 219.708 199.913 224.323 187 238.208C174.087 224.323 168.5 219.708 168.5 209.616C168.5 195.883 177.969 188.258 187 181.166C196.031 188.258 205.5 195.883 205.5 209.616Z" stroke="black" stroke-width="2" stroke-linecap="round" stroke-linejoin="round"/>
</g>
<g clip-path="url(#clip8_0_1)">
<path d="M827.702 332.046L843.59 301.769H843.538C844.52 299.858 846.845 299.134 848.731 300.142C849.402 300.503 849.971 301.072 850.332 301.743L853.071 306.936" stroke="black" stroke-width="2" stroke-linecap="round" stroke-linejoin="round"/>
<path d="M855.964 304.662C857.463 303.138 859.917 303.138 861.415 304.636C861.983 305.204 862.345 305.928 862.474 306.729L866.349 330.263C866.608 331.864 865.833 333.466 864.386 334.241L848.705 341.733C847.517 342.379 846.096 342.404 844.933 341.733L829.382 334.189C827.961 333.389 827.186 331.813 827.444 330.211L832.508 299.108C832.818 296.989 834.807 295.543 836.899 295.879C838.088 296.059 839.147 296.809 839.715 297.868L842.918 302.414" stroke="black" stroke-width="2" stroke-linecap="round" stroke-linejoin="round"/>
<path d="M827.806 332.381L856.042 304.791" stroke="black" stroke-width="2" stroke-linecap="round" stroke-linejoin="round"/>
</g>
<g clip-path="url(#clip9_0_1)">
<path d="M378.734 49.3633C363.989 53.4603 354.333 60.2773 354.333 68.0009C354.333 80.5243 379.703 90.6676 411 90.6676C415.38 90.6676 419.647 90.4693 423.739 90.0896" stroke="black" stroke-width="2" stroke-linecap="round" stroke-linejoin="round"/>
<path d="M443.255 86.6383C458.005 82.547 467.667 75.7243 467.667 68.0007C467.667 55.4773 442.297 45.334 411 45.334C406.62 45.334 402.353 45.5323 398.25 45.912" stroke="black" stroke-width="2" stroke-linecap="round" stroke-linejoin="round"/>
<path d="M378.728 86.6263C374.898 101.445 375.98 113.22 382.667 117.073C393.507 123.335 414.984 106.437 430.629 79.3333C432.822 75.5367 434.783 71.7457 436.5 68" stroke="black" stroke-width="2" stroke-linecap="round" stroke-linejoin="round"/>
<path d="M443.266 49.3907C447.102 34.5667 446.026 22.7801 439.333 18.9267C428.493 12.6651 407.016 29.5631 391.371 56.6667C389.178 60.4634 387.217 64.2601 385.494 68.0001" stroke="black" stroke-width="2" stroke-linecap="round" stroke-linejoin="round"/>
<path d="M411 30.7369C400.092 20.0155 389.353 15.0629 382.667 18.9275C371.826 25.1835 375.719 52.2305 391.371 79.3342C393.558 83.1309 395.864 86.7235 398.239 90.0782" stroke="black" stroke-width="2" stroke-linecap="round" stroke-linejoin="round"/>
<path d="M411 105.254C421.914 115.981 432.652 120.939 439.333 117.074C450.174 110.818 446.281 83.7713 430.629 56.6676C428.504 52.9843 426.209 49.3973 423.761 45.918" stroke="black" stroke-width="2" stroke-linecap="round" stroke-linejoin="round"/>
<path d="M408.167 72.9068C408.811 73.2847 409.525 73.5314 410.265 73.6327C411.005 73.7339 411.759 73.6877 412.481 73.4967C413.204 73.3057 413.881 72.9736 414.475 72.5197C415.068 72.0657 415.566 71.4988 415.94 70.8516C416.314 70.2044 416.556 69.4897 416.652 68.7486C416.748 68.0076 416.697 67.2547 416.501 66.5335C416.306 65.8123 415.969 65.137 415.511 64.5463C415.053 63.9557 414.483 63.4615 413.833 63.0921C412.533 62.3525 410.992 62.1575 409.548 62.5495C408.104 62.9416 406.873 63.889 406.125 65.1848C405.377 66.4807 405.172 68.02 405.554 69.4667C405.937 70.9133 406.876 72.15 408.167 72.9068Z" stroke="black" stroke-width="2" stroke-linecap="round" stroke-linejoin="round"/>
</g>
<g clip-path="url(#clip10_0_1)">
<path d="M350.25 175.25V198.711C350.25 199.734 349.981 200.739 349.47 201.625C348.959 202.511 348.224 203.247 347.339 203.759C346.454 204.271 345.449 204.542 344.427 204.544C343.404 204.545 342.399 204.278 341.512 203.769L336.938 201.144C335.659 200.362 334.601 199.264 333.868 197.956C333.134 196.648 332.75 195.174 332.75 193.674V174.322C332.75 172.823 333.135 171.349 333.869 170.042C334.602 168.734 335.659 167.637 336.938 166.856L354.438 156.16C355.812 155.321 357.39 154.877 359 154.877C360.61 154.877 362.188 155.321 363.562 156.16L381.062 166.856C382.341 167.637 383.399 168.735 384.132 170.043C384.866 171.351 385.25 172.826 385.25 174.325V193.674C385.25 195.173 384.865 196.647 384.131 197.955C383.398 199.262 382.341 200.359 381.062 201.141L363.562 211.836C362.188 212.676 360.61 213.12 359 213.12C357.39 213.12 355.812 212.676 354.438 211.836" stroke="black" stroke-width="2" stroke-linecap="round" stroke-linejoin="round"/>
<path d="M373.583 175.25H363.375C362.215 175.25 361.102 175.711 360.281 176.531C359.461 177.352 359 178.465 359 179.625C359 180.785 359.461 181.898 360.281 182.719C361.102 183.539 362.215 184 363.375 184H369.208C370.369 184 371.481 184.461 372.302 185.281C373.122 186.102 373.583 187.215 373.583 188.375C373.583 189.535 373.122 190.648 372.302 191.469C371.481 192.289 370.369 192.75 369.208 192.75H359" stroke="black" stroke-width="2" stroke-linecap="round" stroke-linejoin="round"/>
</g>
<g clip-path="url(#clip11_0_1)">
<path d="M309.333 410.666L298 492.833L264 504.166L230 492.833L218.667 410.666H309.333Z" stroke="black" stroke-width="2" stroke-linecap="round" stroke-linejoin="round"/>
<path d="M238.5 433.334H255.5V478.667L244.167 473.001" stroke="black" stroke-width="2" stroke-linecap="round" stroke-linejoin="round"/>
<path d="M289.5 433.334H275.333C274.582 433.334 273.861 433.632 273.33 434.164C272.799 434.695 272.5 435.416 272.5 436.167V453.167C272.5 453.919 272.799 454.639 273.33 455.171C273.861 455.702 274.582 456.001 275.333 456.001H283.397C283.803 456.001 284.203 456.088 284.572 456.256C284.941 456.424 285.27 456.67 285.536 456.976C285.802 457.282 285.999 457.642 286.114 458.031C286.229 458.42 286.259 458.829 286.202 459.231L283.833 475.834L272.5 478.667" stroke="black" stroke-width="2" stroke-linecap="round" stroke-linejoin="round"/>
</g>
<g clip-path="url(#clip12_0_1)">
<path d="M618.333 387.667V362.334L627.833 387.667V362.334" stroke="black" stroke-width="2" stroke-linecap="round" stroke-linejoin="round"/>
<path d="M602.5 362.334C604.18 362.334 605.791 363.001 606.978 364.189C608.166 365.377 608.833 366.988 608.833 368.667V381.334C608.833 383.014 608.166 384.625 606.978 385.812C605.791 387 604.18 387.667 602.5 387.667C600.82 387.667 599.209 387 598.022 385.812C596.834 384.625 596.167 383.014 596.167 381.334V368.667C596.167 366.988 596.834 365.377 598.022 364.189C599.209 363.001 600.82 362.334 602.5 362.334Z" stroke="black" stroke-width="2" stroke-linecap="round" stroke-linejoin="round"/>
<path d="M558.167 362.334H567.667V382.917C567.667 384.177 567.166 385.385 566.276 386.276C565.385 387.167 564.177 387.667 562.917 387.667C561.657 387.667 560.449 387.167 559.558 386.276C558.667 385.385 558.167 384.177 558.167 382.917V381.334" stroke="black" stroke-width="2" stroke-linecap="round" stroke-linejoin="round"/>
<path d="M577.167 384.501C577.167 385.341 577.5 386.146 578.094 386.74C578.688 387.334 579.494 387.667 580.333 387.667H583.5C584.34 387.667 585.145 387.334 585.739 386.74C586.333 386.146 586.667 385.341 586.667 384.501V378.167C586.667 377.327 586.333 376.522 585.739 375.928C585.145 375.334 584.34 375.001 583.5 375.001H580.333C579.494 375.001 578.688 374.667 578.094 374.073C577.5 373.479 577.167 372.674 577.167 371.834V365.501C577.167 364.661 577.5 363.855 578.094 363.261C578.688 362.668 579.494 362.334 580.333 362.334H583.5C584.34 362.334 585.145 362.668 585.739 363.261C586.333 363.855 586.667 364.661 586.667 365.501" stroke="black" stroke-width="2" stroke-linecap="round" stroke-linejoin="round"/>
</g>
<g clip-path="url(#clip13_0_1)">
<path d="M799 217.167C800.813 218.98 803.273 220 805.84 220H808.917C812.827 220 816 216.827 816 212.917V211.5C816 209.246 815.104 207.084 813.51 205.49C811.916 203.896 809.754 203 807.5 203C805.246 203 803.084 202.104 801.49 200.51C799.896 198.916 799 196.754 799 194.5V193.083C799 189.173 802.173 186 806.083 186H809.16C811.727 186 814.187 187.02 816 188.833" stroke="black" stroke-width="2" stroke-linecap="round" stroke-linejoin="round"/>
<path d="M765 186H787.667" stroke="black" stroke-width="2" stroke-linecap="round" stroke-linejoin="round"/>
<path d="M776.333 186V220" stroke="black" stroke-width="2" stroke-linecap="round" stroke-linejoin="round"/>
<path d="M833 225.667V146.333C833 143.328 831.806 140.445 829.681 138.319C827.555 136.194 824.672 135 821.667 135H742.333C739.328 135 736.445 136.194 734.319 138.319C732.194 140.445 731 143.328 731 146.333V225.667C731 228.672 732.194 231.555 734.319 233.681C736.445 235.806 739.328 237 742.333 237H821.667C824.672 237 827.555 235.806 829.681 233.681C831.806 231.555 833 228.672 833 225.667Z" stroke="black" stroke-width="2" stroke-linecap="round" stroke-linejoin="round"/>
</g>
<g clip-path="url(#clip14_0_1)">
<path d="M725 512H685.333C682.328 512 679.445 513.194 677.319 515.319C675.194 517.445 674 520.328 674 523.333V546C674 549.006 675.194 551.888 677.319 554.014C679.445 556.139 682.328 557.333 685.333 557.333H702.333" stroke="black" stroke-width="2" stroke-linecap="round" stroke-linejoin="round"/>
<path d="M725 545.999H764.667C767.672 545.999 770.555 544.805 772.681 542.68C774.806 540.554 776 537.672 776 534.666V511.999C776 508.994 774.806 506.111 772.681 503.985C770.555 501.86 767.672 500.666 764.667 500.666H747.667" stroke="black" stroke-width="2" stroke-linecap="round" stroke-linejoin="round"/>
<path d="M702.333 512V489.333C702.333 486.328 703.527 483.445 705.653 481.319C707.778 479.194 710.661 478 713.667 478H736.333C739.339 478 742.222 479.194 744.347 481.319C746.473 483.445 747.667 486.328 747.667 489.333V517.667C747.667 520.672 746.473 523.555 744.347 525.681C742.222 527.806 739.339 529 736.333 529H713.667C710.661 529 707.778 530.194 705.653 532.319C703.527 534.445 702.333 537.328 702.333 540.333V568.667C702.333 571.672 703.527 574.555 705.653 576.681C707.778 578.806 710.661 580 713.667 580H736.333C739.339 580 742.222 578.806 744.347 576.681C746.473 574.555 747.667 571.672 747.667 568.667V546" stroke="black" stroke-width="2" stroke-linecap="round" stroke-linejoin="round"/>
<path d="M719.333 495V495.057" stroke="black" stroke-width="2" stroke-linecap="round" stroke-linejoin="round"/>
<path d="M730.667 563V563.057" stroke="black" stroke-width="2" stroke-linecap="round" stroke-linejoin="round"/>
</g>
<defs>
<clipPath id="clip0_0_1">
<rect width="136" height="136" fill="white" transform="translate(196 238)"/>
</clipPath>
<clipPath id="clip1_0_1">
<rect width="136" height="136" fill="white" transform="translate(0 274)"/>
</clipPath>
<clipPath id="clip2_0_1">
<rect width="136" height="136" fill="white" transform="translate(457 167)"/>
</clipPath>
<clipPath id="clip3_0_1">
<rect width="72" height="72" fill="white" transform="translate(407 309)"/>
</clipPath>
<clipPath id="clip4_0_1">
<rect width="136" height="136" fill="white" transform="translate(637 255)"/>
</clipPath>
<clipPath id="clip5_0_1">
<rect width="136" height="136" fill="white" transform="translate(438 410)"/>
</clipPath>
<clipPath id="clip6_0_1">
<rect width="136" height="136" fill="white" transform="translate(550 38)"/>
</clipPath>
<clipPath id="clip7_0_1">
<rect width="74" height="74" fill="white" transform="translate(150 175)"/>
</clipPath>
<clipPath id="clip8_0_1">
<rect width="62" height="62" fill="white" transform="translate(816 288)"/>
</clipPath>
<clipPath id="clip9_0_1">
<rect width="136" height="136" fill="white" transform="translate(343)"/>
</clipPath>
<clipPath id="clip10_0_1">
<rect width="70" height="70" fill="white" transform="translate(324 149)"/>
</clipPath>
<clipPath id="clip11_0_1">
<rect width="136" height="136" fill="white" transform="translate(196 388)"/>
</clipPath>
<clipPath id="clip12_0_1">
<rect width="76" height="76" fill="white" transform="translate(555 337)"/>
</clipPath>
<clipPath id="clip13_0_1">
<rect width="136" height="136" fill="white" transform="translate(714 118)"/>
</clipPath>
<clipPath id="clip14_0_1">
<rect width="136" height="136" fill="white" transform="translate(657 461)"/>
</clipPath>
</defs>
</svg>
